<?xml version="1.0" encoding="UTF-8" standalone="no"?><!DOCTYPE svg PUBLIC "-//W3C//DTD SVG 1.1//EN" "http://www.w3.org/Graphics/SVG/1.1/DTD/svg11.dtd"><svg width="100%" height="100%" viewBox="0 0 115 38" version="1.1" xmlns="http://www.w3.org/2000/svg" xmlns:xlink="http://www.w3.org/1999/xlink" xml:space="preserve" xmlns:serif="http://www.serif.com/" style="fill-rule:evenodd;clip-rule:evenodd;stroke-linejoin:round;stroke-miterlimit:2;"><path d="M6.472,5.183c-0.706,0 -1.278,0.575 -1.278,1.285c-0,0.71 0.572,1.284 1.278,1.284c0.706,0 1.277,-0.574 1.277,-1.284c0,-0.71 -0.571,-1.285 -1.277,-1.285Z" style="fill:#0066ba;fill-rule:nonzero;"/><path d="M18.891,2.569c0.706,0 1.278,-0.575 1.278,-1.284c0,-0.71 -0.572,-1.285 -1.278,-1.285c-0.706,0 -1.278,0.575 -1.278,1.285c0,0.709 0.572,1.284 1.278,1.284Z" style="fill:#0066ba;fill-rule:nonzero;"/><path d="M31.352,7.752c0.327,0 0.655,-0.124 0.903,-0.377c0.241,-0.242 0.375,-0.564 0.375,-0.907c0,-0.343 -0.134,-0.665 -0.375,-0.907c-0.5,-0.499 -1.309,-0.499 -1.809,-0c-0.241,0.242 -0.375,0.564 -0.375,0.907c0,0.343 0.134,0.665 0.375,0.907c0.248,0.249 0.576,0.377 0.903,0.377l0.003,0Z" style="fill:#0066ba;fill-rule:nonzero;"/><path d="M36.522,17.707c-0.706,-0 -1.278,0.575 -1.278,1.284c0,0.71 0.572,1.285 1.278,1.285c0.706,-0 1.278,-0.575 1.278,-1.285c-0,-0.709 -0.572,-1.284 -1.278,-1.284Z" style="fill:#0066ba;fill-rule:nonzero;"/><path d="M30.464,30.611c-0.5,0.502 -0.5,1.316 -0,1.818c0.241,0.242 0.561,0.377 0.902,0.377c0.341,0 0.661,-0.135 0.902,-0.377c0.5,-0.502 0.5,-1.316 0.001,-1.818c-0.483,-0.485 -1.326,-0.485 -1.809,0l0.004,0Z" style="fill:#0066ba;fill-rule:nonzero;"/><path d="M18.909,35.431c-0.706,-0 -1.278,0.575 -1.278,1.284c-0,0.71 0.572,1.285 1.277,1.285c0.707,0 1.278,-0.575 1.278,-1.285c0,-0.709 -0.571,-1.284 -1.277,-1.284Z" style="fill:#0066ba;fill-rule:nonzero;"/><path d="M5.542,30.625c-0.241,0.242 -0.376,0.564 -0.376,0.907c0,0.343 0.135,0.665 0.376,0.907c0.241,0.243 0.561,0.378 0.902,0.378c0.341,-0 0.661,-0.135 0.902,-0.378c0.5,-0.502 0.5,-1.315 0,-1.817c-0.499,-0.503 -1.308,-0.499 -1.808,-0l0.004,0.003Z" style="fill:#0066ba;fill-rule:nonzero;"/><path d="M1.278,20.293c0.705,0 1.278,-0.575 1.278,-1.284c-0,-0.71 -0.573,-1.285 -1.278,-1.285c-0.706,0 -1.278,0.575 -1.278,1.285c0,0.709 0.572,1.284 1.278,1.284Z" style="fill:#0066ba;fill-rule:nonzero;"/><path d="M8.528,6.149c-0.097,0.277 -0.083,0.572 0.045,0.835c0.124,0.263 0.344,0.46 0.616,0.557l2.773,0.99c0.396,0.142 0.809,0.215 1.233,0.215c1.398,0 2.665,-0.772 3.306,-2.012l1.395,-2.707c0.134,-0.256 0.158,-0.554 0.072,-0.831c-0.089,-0.277 -0.279,-0.506 -0.534,-0.637c-0.258,-0.135 -0.551,-0.16 -0.826,-0.073c-0.279,0.09 -0.503,0.28 -0.637,0.537l-1.395,2.707c-0.352,0.686 -1.161,1.008 -1.881,0.745l-2.769,-0.991c-0.117,-0.041 -0.241,-0.062 -0.365,-0.062c-0.158,0 -0.317,0.035 -0.465,0.107c-0.262,0.125 -0.461,0.347 -0.558,0.62l-0.01,0Z" style="fill:#dd5434;fill-rule:nonzero;"/><path d="M20.049,3.161c-0.097,0.274 -0.083,0.571 0.041,0.835l1.264,2.669c0.182,0.384 0.424,0.731 0.72,1.028c0.981,0.987 2.442,1.347 3.75,0.928l2.89,-0.921c0.276,-0.086 0.503,-0.28 0.634,-0.536c0.134,-0.26 0.158,-0.554 0.072,-0.831c-0.086,-0.277 -0.279,-0.506 -0.537,-0.641c-0.258,-0.135 -0.551,-0.159 -0.827,-0.072l-2.889,0.921c-0.731,0.231 -1.526,-0.118 -1.853,-0.811l-1.261,-2.669c-0.258,-0.54 -0.906,-0.776 -1.446,-0.516c-0.269,0.131 -0.462,0.35 -0.558,0.62l-0,-0.004Z" style="fill:#dd5434;fill-rule:nonzero;"/><path d="M30.295,9.234l-0.985,2.787c-0.141,0.399 -0.214,0.814 -0.214,1.24c0,1.406 0.768,2.68 2.001,3.32l2.694,1.403c0.516,0.27 1.198,0.048 1.464,-0.468c0.275,-0.533 0.065,-1.194 -0.465,-1.471l-2.694,-1.402c-0.678,-0.354 -0.999,-1.167 -0.74,-1.891l0.985,-2.787c0.096,-0.274 0.082,-0.572 -0.041,-0.835c-0.125,-0.263 -0.345,-0.464 -0.617,-0.561c-0.121,-0.041 -0.241,-0.062 -0.362,-0.062c-0.447,0 -0.868,0.281 -1.023,0.724l-0.003,0.003Z" style="fill:#dd5434;fill-rule:nonzero;"/><path d="M35.317,21.547c0.096,-0.274 0.082,-0.572 -0.042,-0.835c-0.124,-0.266 -0.344,-0.464 -0.616,-0.561c-0.121,-0.041 -0.241,-0.062 -0.365,-0.062c-0.159,-0 -0.317,0.035 -0.465,0.107l-2.656,1.271c-0.379,0.18 -0.723,0.426 -1.023,0.724c-0.988,0.993 -1.339,2.437 -0.919,3.77l0.916,2.905c0.089,0.277 0.279,0.506 0.534,0.641c0.258,0.135 0.551,0.159 0.826,0.072c0.276,-0.086 0.503,-0.28 0.638,-0.536c0.134,-0.26 0.158,-0.554 0.072,-0.831l-0.916,-2.905c-0.231,-0.734 0.113,-1.534 0.806,-1.863l2.655,-1.271c0.262,-0.124 0.462,-0.346 0.558,-0.619l-0.003,-0.007Z" style="fill:#dd5434;fill-rule:nonzero;"/><path d="M29.272,31.851c0.096,-0.277 0.083,-0.572 -0.045,-0.835c-0.124,-0.263 -0.344,-0.464 -0.616,-0.557l-2.769,-0.99c-0.396,-0.142 -0.813,-0.215 -1.233,-0.215c-1.399,-0 -2.666,0.772 -3.307,2.012l-1.395,2.707c-0.134,0.26 -0.158,0.554 -0.072,0.831c0.086,0.277 0.279,0.506 0.534,0.637c0.258,0.135 0.547,0.159 0.83,0.073c0.275,-0.087 0.503,-0.281 0.634,-0.537l1.395,-2.707c0.351,-0.682 1.164,-1.001 1.88,-0.745l2.769,0.991c0.562,0.2 1.188,-0.097 1.388,-0.662l0.007,-0.003Z" style="fill:#dd5434;fill-rule:nonzero;"/><path d="M13.095,31.39c0.578,0 1.133,0.333 1.391,0.883l1.261,2.67c0.124,0.263 0.344,0.464 0.616,0.561c0.272,0.096 0.569,0.083 0.83,-0.042c0.262,-0.125 0.462,-0.346 0.558,-0.62c0.097,-0.273 0.083,-0.571 -0.041,-0.834l-1.264,-2.67c-0.179,-0.384 -0.424,-0.727 -0.72,-1.028c-0.988,-0.994 -2.428,-1.35 -3.751,-0.928l-2.889,0.921c-0.569,0.184 -0.889,0.796 -0.706,1.371c0.086,0.277 0.279,0.506 0.534,0.637c0.258,0.135 0.547,0.16 0.83,0.073l2.889,-0.921c0.152,-0.049 0.31,-0.073 0.462,-0.073Z" style="fill:#dd5434;fill-rule:nonzero;"/><path d="M8.703,24.739c0,-1.406 -0.764,-2.68 -2.001,-3.324l-2.693,-1.402c-0.155,-0.083 -0.327,-0.121 -0.499,-0.121c-0.111,-0 -0.221,0.017 -0.331,0.052c-0.276,0.086 -0.503,0.28 -0.637,0.536c-0.135,0.26 -0.159,0.554 -0.073,0.831c0.09,0.277 0.279,0.506 0.534,0.641l2.694,1.402c0.678,0.353 0.998,1.167 0.74,1.89l-0.985,2.788c-0.096,0.273 -0.083,0.571 0.045,0.834c0.124,0.263 0.344,0.461 0.616,0.558c0.565,0.2 1.196,-0.111 1.388,-0.662l0.985,-2.787c0.142,-0.398 0.214,-0.814 0.214,-1.24l0.003,0.004Z" style="fill:#dd5434;fill-rule:nonzero;"/><path d="M7.65,15.809c0.988,-0.993 1.343,-2.437 0.923,-3.77l-0.917,-2.905c-0.086,-0.277 -0.279,-0.506 -0.533,-0.637c-0.159,-0.083 -0.328,-0.125 -0.5,-0.125c-0.11,0 -0.22,0.017 -0.327,0.052c-0.279,0.087 -0.503,0.281 -0.637,0.537c-0.135,0.259 -0.159,0.554 -0.073,0.834l0.917,2.905c0.23,0.734 -0.114,1.534 -0.806,1.866l-2.656,1.268c-0.262,0.124 -0.458,0.346 -0.554,0.619c-0.097,0.277 -0.083,0.572 0.041,0.835c0.124,0.263 0.344,0.464 0.617,0.561c0.268,0.097 0.568,0.083 0.83,-0.042l2.655,-1.27c0.382,-0.181 0.727,-0.426 1.023,-0.724l-0.003,-0.004Z" style="fill:#dd5434;fill-rule:nonzero;"/><path d="M58.179,6.738c-0.424,-0.45 -0.927,-0.797 -1.509,-1.042c-0.582,-0.246 -1.253,-0.371 -2.008,-0.371c-0.754,0 -1.477,0.146 -2.1,0.43c-0.624,0.287 -1.151,0.675 -1.588,1.163c-0.434,0.488 -0.768,1.052 -1.002,1.696c-0.235,0.644 -0.352,1.32 -0.352,2.033c0,0.713 0.117,1.388 0.352,2.032c0.234,0.644 0.568,1.205 1.002,1.687c0.434,0.481 0.964,0.865 1.588,1.152c0.623,0.288 1.322,0.43 2.101,0.43c0.685,-0 1.315,-0.076 1.887,-0.225c0.572,-0.149 1.033,-0.339 1.388,-0.568l-0,-3.708l-3.51,-0l0,-1.105l4.743,0l-0,5.516c-0.665,0.401 -1.378,0.703 -2.142,0.9c-0.768,0.194 -1.561,0.294 -2.384,0.294c-0.916,0 -1.76,-0.162 -2.538,-0.481c-0.779,-0.322 -1.447,-0.768 -2.008,-1.336c-0.561,-0.568 -0.999,-1.243 -1.312,-2.026c-0.314,-0.782 -0.472,-1.638 -0.472,-2.569c-0,-0.931 0.162,-1.787 0.482,-2.569c0.32,-0.783 0.765,-1.458 1.33,-2.026c0.564,-0.567 1.236,-1.014 2.007,-1.336c0.772,-0.322 1.609,-0.485 2.511,-0.485c0.972,0 1.819,0.146 2.539,0.44c0.719,0.291 1.336,0.696 1.853,1.215l-0.858,0.862l0,-0.003Z" style="fill:#212322;fill-rule:nonzero;"/><path d="M77.852,17.111l-1.357,0l5.249,-12.579l1.202,0l5.215,12.579l-1.371,0l-1.34,-3.303l-6.279,0l-1.319,3.303Zm1.784,-4.48l5.352,-0l-2.676,-6.679l-2.676,6.679Z" style="fill:#212322;fill-rule:nonzero;"/><path d="M65.711,15.74l6.951,0l-0,1.371l-8.297,0l-0,-12.641l1.346,-0l0,11.27Z" style="fill:#212322;fill-rule:nonzero;"/><path d="M51.191,32.408l6.95,0l0,1.371l-8.297,0l0,-12.641l1.347,-0l-0,11.27Z" style="fill:#212322;fill-rule:nonzero;"/><path d="M80.697,31.286l3.206,-10.397l1.182,-0l3.027,10.397l0.231,0l3.678,-10.162l1.681,0l-4.763,12.648l-1.426,0l-2.897,-9.926l-0.216,-0l-3.145,9.933l-1.44,0l-4.439,-12.655l1.708,0l3.375,10.162l0.238,0Z" style="fill:#212322;fill-rule:nonzero;"/><rect x="97.98" y="21.124" width="1.56" height="12.655" style="fill:#212322;fill-rule:nonzero;"/><path d="M63.955,32.408l-0,-4.283l6.926,0l0,-1.374l-6.926,-0l-0,-4.242l7.608,0l0,-1.371l-8.955,0l0,12.641l9.182,0l0,-1.371l-7.835,0Z" style="fill:#212322;fill-rule:nonzero;"/><path d="M112.89,22.391c-0.324,0.423 -0.545,0.71 -0.796,1.039c-0.355,-0.215 -0.658,-0.422 -0.978,-0.592c-1.192,-0.627 -2.432,-0.938 -3.761,-0.505c-1.002,0.325 -1.485,0.934 -1.529,1.828c-0.052,0.969 0.475,1.551 1.302,1.866c0.726,0.277 1.494,0.447 2.235,0.682c0.706,0.225 1.436,0.409 2.104,0.727c1.078,0.513 1.743,1.354 1.771,2.621c0.031,1.309 -0.486,2.323 -1.599,2.992c-1.319,0.789 -2.748,0.834 -4.215,0.512c-1.299,-0.287 -2.435,-0.858 -3.424,-1.828c0.262,-0.315 0.493,-0.592 0.772,-0.924c0.324,0.228 0.62,0.432 0.912,0.644c1.072,0.758 2.267,1.128 3.572,1.045c0.472,-0.031 0.958,-0.156 1.398,-0.336c0.799,-0.329 1.209,-0.983 1.22,-1.842c0.007,-0.827 -0.407,-1.43 -1.178,-1.731c-0.62,-0.242 -1.268,-0.422 -1.905,-0.623c-0.847,-0.27 -1.722,-0.481 -2.538,-0.821c-1.178,-0.488 -1.791,-1.447 -1.808,-2.714c-0.018,-1.247 0.533,-2.244 1.625,-2.867c1.691,-0.963 3.437,-0.803 5.166,-0.114c0.541,0.214 1.027,0.574 1.661,0.938l-0.007,0.003Z" style="fill:#212322;fill-rule:nonzero;"/><path d="M113.651,5.793c-0.324,0.422 -0.544,0.709 -0.796,1.038c-0.355,-0.214 -0.658,-0.422 -0.978,-0.592c-1.192,-0.626 -2.432,-0.938 -3.761,-0.505c-1.002,0.325 -1.484,0.935 -1.529,1.828c-0.052,0.969 0.475,1.551 1.302,1.866c0.726,0.277 1.494,0.447 2.235,0.682c0.706,0.225 1.436,0.409 2.104,0.727c1.078,0.513 1.743,1.354 1.771,2.621c0.031,1.309 -0.486,2.324 -1.598,2.992c-1.32,0.789 -2.749,0.834 -4.216,0.512c-1.299,-0.287 -2.435,-0.858 -3.424,-1.828c0.262,-0.315 0.493,-0.592 0.772,-0.924c0.324,0.228 0.62,0.433 0.913,0.644c1.071,0.758 2.266,1.128 3.571,1.045c0.472,-0.031 0.958,-0.155 1.399,-0.335c0.799,-0.329 1.208,-0.984 1.219,-1.843c0.007,-0.827 -0.407,-1.429 -1.178,-1.731c-0.62,-0.242 -1.268,-0.422 -1.905,-0.623c-0.847,-0.27 -1.722,-0.481 -2.538,-0.821c-1.178,-0.488 -1.791,-1.447 -1.808,-2.714c-0.018,-1.246 0.534,-2.244 1.625,-2.867c1.691,-0.962 3.438,-0.803 5.167,-0.114c0.54,0.215 1.026,0.575 1.66,0.938l-0.007,0.004Z" style="fill:#212322;fill-rule:nonzero;"/><path d="M100.732,5.793c-0.324,0.422 -0.544,0.709 -0.796,1.038c-0.355,-0.214 -0.658,-0.422 -0.978,-0.592c-1.192,-0.626 -2.432,-0.938 -3.761,-0.505c-1.002,0.325 -1.484,0.935 -1.529,1.828c-0.052,0.969 0.475,1.551 1.302,1.866c0.726,0.277 1.494,0.447 2.235,0.682c0.706,0.225 1.436,0.409 2.104,0.727c1.078,0.513 1.743,1.354 1.771,2.621c0.031,1.309 -0.486,2.324 -1.599,2.992c-1.319,0.789 -2.748,0.834 -4.215,0.512c-1.299,-0.287 -2.435,-0.858 -3.424,-1.828c0.262,-0.315 0.493,-0.592 0.772,-0.924c0.324,0.228 0.62,0.433 0.912,0.644c1.072,0.758 2.267,1.128 3.572,1.045c0.472,-0.031 0.958,-0.155 1.398,-0.335c0.8,-0.329 1.209,-0.984 1.22,-1.843c0.007,-0.827 -0.407,-1.429 -1.178,-1.731c-0.62,-0.242 -1.268,-0.422 -1.905,-0.623c-0.847,-0.27 -1.722,-0.481 -2.538,-0.821c-1.178,-0.488 -1.791,-1.447 -1.808,-2.714c-0.018,-1.246 0.533,-2.244 1.625,-2.867c1.691,-0.962 3.438,-0.803 5.166,-0.114c0.541,0.215 1.027,0.575 1.661,0.938l-0.007,0.004Z" style="fill:#212322;fill-rule:nonzero;"/></svg>